<svg width="1024" height="1024" viewBox="0 0 1024 1024" xmlns="http://www.w3.org/2000/svg">
  <defs>
    <linearGradient id="bg" x1="512" y1="96" x2="512" y2="928" gradientUnits="userSpaceOnUse">
      <stop offset="0" stop-color="#1f5e92"/>
      <stop offset="0.52" stop-color="#143f66"/>
      <stop offset="1" stop-color="#0a2742"/>
    </linearGradient>
    <linearGradient id="metal" x1="512" y1="244" x2="512" y2="760" gradientUnits="userSpaceOnUse">
      <stop offset="0" stop-color="#ffffff"/>
      <stop offset="1" stop-color="#dfe8f0"/>
    </linearGradient>
    <radialGradient id="sheen" cx="512" cy="232" r="430" gradientUnits="userSpaceOnUse">
      <stop offset="0" stop-color="#ffffff" stop-opacity="0.20"/>
      <stop offset="1" stop-color="#ffffff" stop-opacity="0"/>
    </radialGradient>
    <clipPath id="squircle">
      <rect x="96" y="96" width="832" height="832" rx="188" ry="188"/>
    </clipPath>
    <filter id="anchorShadow" x="-20%" y="-20%" width="140%" height="140%">
      <feDropShadow dx="0" dy="9" stdDeviation="12" flood-color="#04101f" flood-opacity="0.34"/>
    </filter>
  </defs>

  <!-- squircle body -->
  <g clip-path="url(#squircle)">
    <rect x="96" y="96" width="832" height="832" fill="url(#bg)"/>
    <rect x="96" y="96" width="832" height="832" fill="url(#sheen)"/>
    <!-- calm-water lines, very subtle -->
    <path d="M232 690 q140 -34 280 0 t280 0" fill="none" stroke="#ffffff" stroke-opacity="0.07" stroke-width="10" stroke-linecap="round"/>
    <path d="M268 754 q120 -28 244 0 t244 0" fill="none" stroke="#ffffff" stroke-opacity="0.05" stroke-width="9" stroke-linecap="round"/>
  </g>
  <!-- top inner edge highlight (native glass rim) -->
  <rect x="96.5" y="96.5" width="831" height="831" rx="187.5" fill="none" stroke="#ffffff" stroke-opacity="0.12" stroke-width="1.5"/>

  <!-- anchor -->
  <g filter="url(#anchorShadow)" fill="none" stroke="url(#metal)" stroke-width="40" stroke-linecap="round" stroke-linejoin="round">
    <!-- ring / eye -->
    <circle cx="512" cy="300" r="46"/>
    <!-- shank -->
    <line x1="512" y1="318" x2="512" y2="712"/>
    <!-- stock (crossbar) -->
    <line x1="404" y1="404" x2="620" y2="404"/>
    <!-- arms / crescent -->
    <path d="M360 596 C 360 676, 432 716, 512 716 C 592 716, 664 676, 664 596"/>
  </g>
  <!-- flukes (spearhead tips), filled to match -->
  <g fill="url(#metal)" filter="url(#anchorShadow)">
    <path d="M360 612 L322 540 L416 576 Z"/>
    <path d="M664 612 L702 540 L608 576 Z"/>
  </g>
</svg>
