<svg width="1280" height="640" viewBox="0 0 1280 640" xmlns="http://www.w3.org/2000/svg">
  <defs>
    <linearGradient id="page" x1="0" y1="0" x2="1280" y2="640" gradientUnits="userSpaceOnUse">
      <stop offset="0" stop-color="#1a4d77"/>
      <stop offset="0.55" stop-color="#11375a"/>
      <stop offset="1" stop-color="#091f36"/>
    </linearGradient>
    <radialGradient id="pageSheen" cx="330" cy="150" r="680" gradientUnits="userSpaceOnUse">
      <stop offset="0" stop-color="#ffffff" stop-opacity="0.14"/>
      <stop offset="1" stop-color="#ffffff" stop-opacity="0"/>
    </radialGradient>

    <!-- icon defs (reused from assets/icon.svg) -->
    <linearGradient id="bg" x1="512" y1="96" x2="512" y2="928" gradientUnits="userSpaceOnUse">
      <stop offset="0" stop-color="#1f5e92"/>
      <stop offset="0.52" stop-color="#143f66"/>
      <stop offset="1" stop-color="#0a2742"/>
    </linearGradient>
    <linearGradient id="metal" x1="512" y1="244" x2="512" y2="760" gradientUnits="userSpaceOnUse">
      <stop offset="0" stop-color="#ffffff"/>
      <stop offset="1" stop-color="#dfe8f0"/>
    </linearGradient>
    <radialGradient id="sheen" cx="512" cy="232" r="430" gradientUnits="userSpaceOnUse">
      <stop offset="0" stop-color="#ffffff" stop-opacity="0.20"/>
      <stop offset="1" stop-color="#ffffff" stop-opacity="0"/>
    </radialGradient>
    <clipPath id="squircle">
      <rect x="96" y="96" width="832" height="832" rx="188" ry="188"/>
    </clipPath>
    <filter id="anchorShadow" x="-20%" y="-20%" width="140%" height="140%">
      <feDropShadow dx="0" dy="9" stdDeviation="12" flood-color="#04101f" flood-opacity="0.34"/>
    </filter>
    <filter id="iconDrop" x="-30%" y="-30%" width="160%" height="160%">
      <feDropShadow dx="0" dy="22" stdDeviation="34" flood-color="#04101f" flood-opacity="0.45"/>
    </filter>
  </defs>

  <!-- background -->
  <rect width="1280" height="640" fill="url(#page)"/>
  <rect width="1280" height="640" fill="url(#pageSheen)"/>
  <!-- faint calm-water lines -->
  <path d="M-40 548 q200 -44 400 0 t400 0 t400 0 t400 0" fill="none" stroke="#ffffff" stroke-opacity="0.05" stroke-width="14" stroke-linecap="round"/>
  <path d="M-40 600 q200 -40 400 0 t400 0 t400 0 t400 0" fill="none" stroke="#ffffff" stroke-opacity="0.035" stroke-width="12" stroke-linecap="round"/>

  <!-- anchor squircle logo, the 1024 icon scaled to ~360px on the left -->
  <g transform="translate(118 138) scale(0.355)" filter="url(#iconDrop)">
    <g clip-path="url(#squircle)">
      <rect x="96" y="96" width="832" height="832" fill="url(#bg)"/>
      <rect x="96" y="96" width="832" height="832" fill="url(#sheen)"/>
      <path d="M232 690 q140 -34 280 0 t280 0" fill="none" stroke="#ffffff" stroke-opacity="0.07" stroke-width="10" stroke-linecap="round"/>
      <path d="M268 754 q120 -28 244 0 t244 0" fill="none" stroke="#ffffff" stroke-opacity="0.05" stroke-width="9" stroke-linecap="round"/>
    </g>
    <rect x="96.5" y="96.5" width="831" height="831" rx="187.5" fill="none" stroke="#ffffff" stroke-opacity="0.12" stroke-width="1.5"/>
    <g filter="url(#anchorShadow)" fill="none" stroke="url(#metal)" stroke-width="40" stroke-linecap="round" stroke-linejoin="round">
      <circle cx="512" cy="300" r="46"/>
      <line x1="512" y1="318" x2="512" y2="712"/>
      <line x1="404" y1="404" x2="620" y2="404"/>
      <path d="M360 596 C 360 676, 432 716, 512 716 C 592 716, 664 676, 664 596"/>
    </g>
    <g fill="url(#metal)" filter="url(#anchorShadow)">
      <path d="M360 612 L322 540 L416 576 Z"/>
      <path d="M664 612 L702 540 L608 576 Z"/>
    </g>
  </g>

  <!-- wordmark + copy -->
  <g font-family="Helvetica Neue, Helvetica, Arial, sans-serif">
    <text x="500" y="296" font-size="132" font-weight="800" fill="#ffffff" letter-spacing="-4">Harbor</text>
    <text x="506" y="364" font-size="33" font-weight="600" fill="#cfe0ef">Boot every local dev server with one button.</text>
    <text x="506" y="414" font-size="26" font-weight="500" fill="#7fa6c6">Smart ports · crash recovery · live resource monitor</text>

    <!-- feature pills -->
    <g font-size="23" font-weight="600" fill="#dbe9f5" text-anchor="middle">
      <g>
        <rect x="506" y="462" width="236" height="56" rx="28" fill="#ffffff" fill-opacity="0.09" stroke="#ffffff" stroke-opacity="0.18"/>
        <text x="624" y="498">One-button start</text>
      </g>
      <g>
        <rect x="756" y="462" width="232" height="56" rx="28" fill="#ffffff" fill-opacity="0.09" stroke="#ffffff" stroke-opacity="0.18"/>
        <text x="872" y="498">Detects orphans</text>
      </g>
      <g>
        <rect x="1002" y="462" width="190" height="56" rx="28" fill="#ffffff" fill-opacity="0.09" stroke="#ffffff" stroke-opacity="0.18"/>
        <text x="1097" y="498">MCP-native</text>
      </g>
    </g>

    <text x="506" y="566" font-size="21" font-weight="500" fill="#5d80a0">Open source · MIT · macOS · Tauri 2 (Rust + React)</text>
  </g>
</svg>
